<?xml version="1.0" encoding="UTF-8"?>
<svg width="432px" height="880px" viewBox="0 0 432 880" version="1.1" xmlns="http://www.w3.org/2000/svg" xmlns:xlink="http://www.w3.org/1999/xlink">
    <!-- Generator: Sketch 52.6 (67491) - http://www.bohemiancoding.com/sketch -->
    <title>Bezels</title>
    <desc>Created with Sketch.</desc>
    <g id="Page-1" stroke="none" stroke-width="1" fill="none" fill-rule="evenodd">
        <g id="Artboard" transform="translate(-34.000000, -35.000000)" fill="#FFFFFF" fill-rule="nonzero" stroke="#FFFFFF" stroke-width="2">
            <g id="Bezels" transform="translate(36.000000, 37.000000)">
                <path d="M2,285.415955 L2,266.584045 C0.211224782,265.803977 -1,264.022965 -1,262 L-1,206 C-1,203.977035 0.211224782,202.196023 2,201.415955 L2,171.584045 C0.211224782,170.803977 -1,169.022965 -1,167 L-1,143 C-1,140.977035 0.211224782,139.196023 2,138.415955 L2,65 C2,28.5492065 31.5492065,-1 68,-1 L360,-1 C396.450793,-1 426,28.5492065 426,65 L426,222.415955 C427.788775,223.196023 429,224.977035 429,227 L429,325 C429,327.022965 427.788775,328.803977 426,329.584045 L426,811 C426,847.450793 396.450793,877 360,877 L68,877 C31.5492065,877 2,847.450793 2,811 L2,350.584045 C0.211224782,349.803977 -1,348.022965 -1,346 L-1,290 C-1,287.977035 0.211224782,286.196023 2,285.415955 Z M325.003048,21.0424795 C321.552037,21.0595893 320,22.6012147 320,26 C320,40.3594035 308.359403,52 294,52 L134,52 C119.640597,52 108,40.3594035 108,26 C108,22.5957522 106.450016,21.06171 102.998237,21.0617085 L68,21 C43.699471,21 24,40.699471 24,65 L24,807 C24,831.300529 43.699471,851 68,851 L360,851 C384.300529,851 404,831.300529 404,807 L404,65 C404,40.699471 384.300529,21 360.001214,20.9999993 L325.003042,21.0424795 Z M325.003042,21.0424795 L325.001214,21.0424817 L325.004807,21.0424709 C325.00422,21.0424737 325.003634,21.0424766 325.003048,21.0424795 Z" id="Shape"></path>
            </g>
        </g>
    </g>
</svg>