<?xml version="1.0" encoding="UTF-8"?>
<svg width="432px" height="880px" viewBox="0 0 432 880" version="1.1" xmlns="http://www.w3.org/2000/svg" xmlns:xlink="http://www.w3.org/1999/xlink">
    <!-- Generator: Sketch 52.6 (67491) - http://www.bohemiancoding.com/sketch -->
    <title>Outline</title>
    <desc>Created with Sketch.</desc>
    <g id="Page-1" stroke="none" stroke-width="1" fill="none" fill-rule="evenodd">
        <g id="Artboard" transform="translate(-34.000000, -35.000000)" fill-rule="nonzero" stroke="#000000">
            <g id="Outline" transform="translate(36.000000, 36.000000)">
                <rect id="Rectangle" x="190.5" y="25.5" width="45" height="11" rx="5.5"></rect>
                <circle id="Oval" cx="258" cy="31" r="6"></circle>
                <path d="M2,286.415955 L2,267.584045 C0.211224782,266.803977 -1,265.022965 -1,263 L-1,207 C-1,204.977035 0.211224782,203.196023 2,202.415955 L2,172.584045 C0.211224782,171.803977 -1,170.022965 -1,168 L-1,144 C-1,141.977035 0.211224782,140.196023 2,139.415955 L2,66 C2,29.5492065 31.5492065,7.21474162e-15 68,0 L360,0 C396.450793,-7.21474162e-15 426,29.5492065 426,66 L426,223.415955 C427.788775,224.196023 429,225.977035 429,228 L429,326 C429,328.022965 427.788775,329.803977 426,330.584045 L426,812 C426,848.450793 396.450793,878 360,878 L68,878 C31.5492065,878 2,848.450793 2,812 L2,351.584045 C0.211224782,350.803977 -1,349.022965 -1,347 L-1,291 C-1,288.977035 0.211224782,287.196023 2,286.415955 Z" id="Path" stroke-width="2"></path>
                <path d="M420.5,66 C420.5,49.7354842 414.053011,34.4930907 402.77996,23.2200397 C391.506909,11.9469888 376.264516,5.5 360,5.5 L68,5.5 C51.7354842,5.5 36.4930907,11.9469888 25.2200397,23.2200397 C13.9469888,34.4930907 7.5,49.7354842 7.5,66 L7.5,811 C7.5,827.264516 13.9469888,842.506909 25.2200397,853.77996 C36.4930907,865.053011 51.7354842,871.5 68,871.5 L360,871.5 C376.264516,871.5 391.506909,865.053011 402.77996,853.77996 C414.053011,842.506909 420.5,827.264516 420.5,811 L420.5,66 Z" id="Rectangle"></path>
                <path d="M68,0.5 C50.3913459,0.5 33.8891871,7.47982461 21.6845058,19.6845058 C9.47982461,31.8891871 2.5,48.3913459 2.5,66 L2.5,811 C2.5,828.608654 9.47982461,845.110813 21.6845058,857.315494 C33.8891871,869.520175 50.3913459,876.5 68,876.5 L360,876.5 C377.608654,876.5 394.110813,869.520175 406.315494,857.315494 C418.520175,845.110813 425.5,828.608654 425.5,811 L425.5,66 C425.5,48.3913459 418.520175,31.8891871 406.315494,19.6845058 C394.110813,7.47982461 377.608654,0.5 360,0.5 L68,0.5 Z" id="Rectangle"></path>
                <path d="M325.003048,22.0424795 C321.552037,22.0595893 320,23.6012147 320,27 C320,41.3594035 308.359403,53 294,53 L134,53 C119.640597,53 108,41.3594035 108,27 C108,23.5957522 106.450016,22.06171 102.998237,22.0617085 L68,22 C43.699471,22 24,41.699471 24,66 L24,808 C24,832.300529 43.699471,852 68,852 L360,852 C384.300529,852 404,832.300529 404,808 L404,66 C404,41.699471 384.300529,22 360.001214,21.9999993 L325.003042,22.0424795 Z M325.003042,22.0424795 L325.001214,22.0424817 L325.004807,22.0424709 C325.00422,22.0424737 325.003634,22.0424766 325.003048,22.0424795 Z" id="Path" stroke-width="2"></path>
            </g>
        </g>
    </g>
</svg>