<?xml version="1.0" encoding="UTF-8"?>
<svg width="328px" height="99px" viewBox="0 0 328 99" version="1.1" xmlns="http://www.w3.org/2000/svg" xmlns:xlink="http://www.w3.org/1999/xlink">
    <!-- Generator: Sketch 52.6 (67491) - http://www.bohemiancoding.com/sketch -->
    <title>Sig</title>
    <desc>Created with Sketch.</desc>
    <g id="Page-1" stroke="none" stroke-width="1" fill="none" fill-rule="evenodd" stroke-linecap="round">
        <g id="Sig" transform="translate(2.000000, 3.000000)" fill-rule="nonzero" stroke="#000000" stroke-width="5">
            <path d="M44,35.1944157 C51,-5 0.5,14.5 0.5,53 C0.5,91.5 41.5,79.5 43,65.1944157" id="Path"></path>
            <path d="M121,16 C124,-10.1944157 97,8.1916945 97,24.3458472 C97,40.5 122,35 126.5,32 C109,33.5 81.8671556,63.4358674 103,80.4492956 C113,88.5 127.378344,85.5702241 135,72 C148.800316,47.428781 151.975812,0 146.5,0 C138,0 129.5,57.3985913 156,80.4492956 C152,42.6948082 162,16 169.5,19 C177,22 172,39.5 168,54.5 C216.5,46.5 175.5,83 169.5,80.4492956 C189.906995,23.9223308 202.019386,24.9837458 205,40 C207.131432,50.7380964 202.5,68.8696114 202.5,77 C219.361686,52.550556 225.211389,45.9794075 229,48 C236.5,52 227,66.5 227,75.5 C253,78.9492956 277.5,49 323,72" id="Path-Copy" stroke-linejoin="round"></path>
            <path d="M45.8649176,53 C38.3649176,69 46.3649176,87.5 60.8649176,73.5" id="Path-2"></path>
            <path d="M60.8649176,48.5 C56.7689393,59.1181488 58.4147472,73.2563461 63.9728518,76.2571806 C67.051726,77.9194724 71.3311005,76.1642303 76.5,68.5 C91,47 85.789471,5 78.5,5 C71.210529,5 66.5,72 88,93" id="Path-2-Copy"></path>
        </g>
    </g>
</svg>