<?xml version="1.0" encoding="UTF-8"?>
<svg width="67px" height="12px" viewBox="0 0 67 12" version="1.1" xmlns="http://www.w3.org/2000/svg" xmlns:xlink="http://www.w3.org/1999/xlink">
    <!-- Generator: Sketch 52.6 (67491) - http://www.bohemiancoding.com/sketch -->
    <title>Status</title>
    <desc>Created with Sketch.</desc>
    <g id="Page-1" stroke="none" stroke-width="1" fill="none" fill-rule="evenodd">
        <g id="Artboard" transform="translate(-359.000000, -77.000000)">
            <g id="Status" transform="translate(359.000000, 77.000000)">
                <g id="Battery" transform="translate(42.000000, 0.000000)">
                    <path d="M3.7518137,0.833333333 C2.74354052,0.833333333 2.34483914,0.910326123 1.9333052,1.13041688 C1.58587152,1.31622645 1.31619311,1.58590485 1.13038355,1.93333853 C0.910292789,2.34487247 0.8333,2.74357386 0.8333,3.75184704 L0.8333,8.24815296 C0.8333,9.25642614 0.910292789,9.65512753 1.13038355,10.0666615 C1.31619311,10.4140951 1.58587152,10.6837736 1.9333052,10.8695831 C2.34483914,11.0896739 2.74354052,11.1666667 3.7518137,11.1666667 L18.9147863,11.1666667 C19.9230595,11.1666667 20.3217609,11.0896739 20.7332948,10.8695831 C21.0807285,10.6837736 21.3504069,10.4140951 21.5362165,10.0666615 C21.7563072,9.65512753 21.8333,9.25642614 21.8333,8.24815296 L21.8333,3.75184704 C21.8333,2.74357386 21.7563072,2.34487247 21.5362165,1.93333853 C21.3504069,1.58590485 21.0807285,1.31622645 20.7332948,1.13041688 C20.3217609,0.910326123 19.9230595,0.833333333 18.9147863,0.833333333 L3.7518137,0.833333333 Z" id="Border" stroke="#000000" opacity="0.35"></path>
                    <path d="M23.3333,4 L23.3333,8 C24.1380311,7.66122348 24.661338,6.87313328 24.661338,6 C24.661338,5.12686672 24.1380311,4.33877652 23.3333,4" id="Cap" fill="#000000" fill-rule="nonzero" opacity="0.4"></path>
                    <path d="M4.04255685,2.33333333 L18.6240431,2.33333333 C19.218389,2.33333333 19.4339132,2.39521708 19.6511971,2.51142181 C19.8684811,2.62762654 20.0390068,2.79815226 20.1552115,3.01543622 C20.2714163,3.23272018 20.3333,3.44824434 20.3333,4.04259018 L20.3333,7.95740982 C20.3333,8.55175566 20.2714163,8.76727982 20.1552115,8.98456378 C20.0390068,9.20184774 19.8684811,9.37237346 19.6511971,9.48857819 C19.4339132,9.60478292 19.218389,9.66666667 18.6240431,9.66666667 L4.04255685,9.66666667 C3.44821101,9.66666667 3.23268684,9.60478292 3.01540288,9.48857819 C2.79811893,9.37237346 2.62759321,9.20184774 2.51138847,8.98456378 C2.39518374,8.76727982 2.3333,8.55175566 2.3333,7.95740982 L2.3333,4.04259018 C2.3333,3.44824434 2.39518374,3.23272018 2.51138847,3.01543622 C2.62759321,2.79815226 2.79811893,2.62762654 3.01540288,2.51142181 C3.23268684,2.39521708 3.44821101,2.33333333 4.04255685,2.33333333 Z" id="Capacity" fill="#000000" fill-rule="nonzero"></path>
                </g>
                <path d="M29.6670694,2.28447738 C31.8918018,2.28457477 34.0314629,3.13868558 35.6438168,4.67027792 C35.7652312,4.78852259 35.9592992,4.78703102 36.0788787,4.66693412 L37.2394902,3.49660449 C37.3000388,3.43569168 37.3337969,3.35318175 37.3332945,3.26733272 C37.332792,3.1814837 37.2980704,3.0993739 37.2368129,3.0391728 C33.0049004,-1.0130576 26.328569,-1.0130576 22.0966565,3.0391728 C22.0353544,3.09932922 22.0005723,3.18141408 22.000007,3.26726323 C21.9994417,3.35311237 22.0331399,3.43564739 22.0936446,3.49660449 L23.2545907,4.66693412 C23.374094,4.78721225 23.5683117,4.78870497 23.6896527,4.67027792 C25.3022119,3.13858504 27.4421187,2.28447177 29.6670694,2.28447738 Z M29.6670694,6.09206122 C30.8894154,6.09198639 32.0681407,6.54593965 32.9742096,7.36571424 C33.0967598,7.48205895 33.2898082,7.4795366 33.4092716,7.36002978 L34.5685444,6.18970015 C34.6295945,6.12831304 34.6634685,6.04503607 34.6625879,5.95850046 C34.6617074,5.87196486 34.6261457,5.78939325 34.5638591,5.72925904 C31.8046974,3.16485049 27.531784,3.16485049 24.7726223,5.72925904 C24.7102969,5.78939252 24.6747375,5.8720055 24.6739196,5.95856907 C24.6731016,6.04513264 24.7070937,6.12840169 24.7682717,6.18970015 L25.9272098,7.36002978 C26.0466731,7.4795366 26.2397216,7.48205895 26.3622718,7.36571424 C27.2677417,6.54648132 28.4455313,6.09256692 29.6670694,6.09206122 Z M31.8949213,8.88513648 C31.9569209,8.82434017 31.9910645,8.74067623 31.9892907,8.65389777 C31.9875169,8.56711932 31.949983,8.48491801 31.8855507,8.42670164 C30.6048906,7.34443044 28.7292481,7.34443044 27.448588,8.42670164 C27.384111,8.4848712 27.3465157,8.56704664 27.3446785,8.65382554 C27.3428414,8.74060444 27.3769253,8.82429478 27.4388828,8.88513648 L29.4445184,10.9071317 C29.5033021,10.9665567 29.5834462,11 29.6670694,11 C29.7506926,11 29.8308366,10.9665567 29.8896203,10.9071317 L31.8949213,8.88513648 Z" id="Wifi" fill="#000000" fill-rule="nonzero"></path>
                <path d="M1,7.66666667 L2,7.66666667 C2.55228475,7.66666667 3,8.11438192 3,8.66666667 L3,10.6666667 C3,11.2189514 2.55228475,11.6666667 2,11.6666667 L1,11.6666667 C0.44771525,11.6666667 0,11.2189514 0,10.6666667 L0,8.66666667 C0,8.11438192 0.44771525,7.66666667 1,7.66666667 Z M5.66666667,5.66666667 L6.66666667,5.66666667 C7.21895142,5.66666667 7.66666667,6.11438192 7.66666667,6.66666667 L7.66666667,10.6666667 C7.66666667,11.2189514 7.21895142,11.6666667 6.66666667,11.6666667 L5.66666667,11.6666667 C5.11438192,11.6666667 4.66666667,11.2189514 4.66666667,10.6666667 L4.66666667,6.66666667 C4.66666667,6.11438192 5.11438192,5.66666667 5.66666667,5.66666667 Z M10.3333333,3.33333333 L11.3333333,3.33333333 C11.8856181,3.33333333 12.3333333,3.78104858 12.3333333,4.33333333 L12.3333333,10.6666667 C12.3333333,11.2189514 11.8856181,11.6666667 11.3333333,11.6666667 L10.3333333,11.6666667 C9.78104858,11.6666667 9.33333333,11.2189514 9.33333333,10.6666667 L9.33333333,4.33333333 C9.33333333,3.78104858 9.78104858,3.33333333 10.3333333,3.33333333 Z M15,1 L16,1 C16.5522847,1 17,1.44771525 17,2 L17,10.6666667 C17,11.2189514 16.5522847,11.6666667 16,11.6666667 L15,11.6666667 C14.4477153,11.6666667 14,11.2189514 14,10.6666667 L14,2 C14,1.44771525 14.4477153,1 15,1 Z" id="Cellular-Connection" fill="#000000" fill-rule="nonzero"></path>
            </g>
        </g>
    </g>
</svg>